<mxfile host="app.diagrams.net" modified="2024-03-28T05:55:51.161Z" agent="Mozilla/5.0 (Macintosh; Intel Mac OS X 10_15_7) AppleWebKit/537.36 (KHTML, like Gecko) Chrome/119.0.0.0 Safari/537.36" version="24.2.0" etag="0l7gr2_j1kKyQWCRQcDy" type="github">
  <diagram name="第 1 页" id="Buq4hX6NCnOiwPKg08E5">
    <mxGraphModel>
      <root>
        <mxCell id="0" />
        <mxCell id="1" parent="0" />
      </root>
    </mxGraphModel>
  </diagram>
</mxfile>
